<?xml version="1.0" standalone="no"?>
<!DOCTYPE svg PUBLIC "-//W3C//DTD SVG 20010904//EN"
 "http://www.w3.org/TR/2001/REC-SVG-20010904/DTD/svg10.dtd">
<svg version="1.0" xmlns="http://www.w3.org/2000/svg"
 width="1200.000000pt" height="1200.000000pt" viewBox="0 0 1200.000000 1200.000000"
 preserveAspectRatio="xMidYMid meet">
<metadata>
Created by potrace 1.11, written by Peter Selinger 2001-2013
</metadata>
<g transform="translate(0.000000,1200.000000) scale(0.100000,-0.100000)"
fill="#000000" stroke="none">
<path d="M3334 11720 c-85 -43 -110 -151 -61 -263 15 -31 29 -83 33 -115 14
-104 8 -363 -10 -472 -3 -14 -7 -45 -10 -70 -4 -25 -9 -58 -11 -75 -11 -60
-25 -141 -30 -175 -3 -19 -7 -46 -10 -60 -2 -14 -7 -47 -10 -75 -3 -27 -8 -57
-10 -65 -2 -8 -6 -35 -9 -60 -3 -25 -8 -56 -11 -70 -2 -13 -7 -42 -10 -65 -4
-22 -8 -51 -10 -65 -30 -192 -39 -323 -40 -550 0 -173 7 -315 20 -382 3 -12 7
-40 10 -63 48 -330 192 -732 359 -999 31 -48 56 -92 56 -96 0 -5 3 -10 8 -12
4 -1 28 -32 54 -68 25 -36 56 -75 67 -87 12 -12 21 -25 21 -27 0 -3 40 -47 89
-98 50 -50 89 -96 88 -102 -1 -6 6 -10 16 -8 10 2 17 -3 17 -13 0 -9 4 -14 8
-11 4 2 29 -15 55 -40 26 -24 49 -44 52 -44 4 0 30 -20 59 -45 6 -6 24 -18 39
-28 15 -10 25 -22 22 -27 -3 -6 1 -7 9 -4 8 3 24 -4 35 -15 12 -12 23 -21 26
-21 12 2 85 -44 85 -52 0 -5 5 -6 10 -3 6 3 12 0 15 -7 3 -8 14 -14 25 -15 24
-2 52 -27 42 -38 -4 -5 -2 -5 5 -2 14 9 104 -29 121 -50 7 -11 12 -12 12 -4 0
7 4 10 10 6 5 -3 8 -11 6 -18 -1 -7 -1 -9 1 -4 7 11 19 9 75 -17 56 -25 97
-40 113 -41 11 0 12 -65 2 -140 -12 -86 -15 -108 -22 -175 -4 -36 -9 -78 -11
-93 -13 -109 -21 -246 -23 -393 l-1 -121 -72 -28 c-320 -124 -826 -377 -1193
-598 -749 -449 -1439 -1071 -1968 -1776 -152 -203 -171 -238 -172 -319 0 -56
3 -66 25 -83 14 -10 29 -23 35 -27 5 -5 27 -5 48 0 21 5 42 6 47 3 5 -3 11 -1
15 4 3 5 19 17 36 25 28 14 30 14 25 0 -3 -8 -2 -12 4 -9 6 3 10 12 10 19 0 7
19 26 43 42 23 16 48 35 55 42 12 11 28 16 35 10 1 -2 13 7 27 20 13 12 30 20
38 17 7 -2 10 -1 7 4 -3 5 -1 12 5 16 5 3 10 1 10 -4 0 -6 4 -11 10 -11 5 0 7
7 4 15 -5 11 -2 13 12 8 11 -4 15 -3 11 4 -7 12 20 26 33 18 4 -3 11 2 14 11
5 14 9 14 23 3 10 -9 14 -9 10 -2 -9 15 28 37 45 27 6 -4 8 -3 5 3 -4 6 -1 13
6 16 6 3 29 13 50 22 29 12 37 13 32 3 -3 -7 0 -5 8 5 8 10 24 19 36 20 12 1
21 5 21 10 0 4 5 5 10 2 6 -3 10 -2 10 3 0 8 108 47 122 44 5 -1 8 2 8 8 0 14
27 12 33 -2 4 -10 6 -10 6 -1 1 17 59 46 77 39 8 -3 14 -1 14 5 0 6 7 9 15 5
8 -3 15 -1 15 4 0 6 5 10 11 10 5 0 7 -4 4 -10 -3 -5 -1 -10 4 -10 6 0 11 6
11 14 0 17 40 29 40 13 0 -7 7 -4 14 5 16 22 30 23 22 2 -3 -8 -2 -12 4 -9 6
3 10 14 10 23 0 13 2 13 15 -4 11 -14 13 -14 9 -3 -4 13 5 19 43 28 55 13 69
13 65 -1 -1 -5 2 -7 8 -3 6 3 8 10 5 15 -3 4 3 11 12 14 9 4 20 1 25 -6 5 -9
8 -8 8 6 0 11 3 16 6 13 4 -3 15 -2 25 4 14 7 19 6 19 -3 0 -8 5 -6 11 5 12
20 49 23 68 5 10 -11 11 -10 6 5 -8 19 10 24 18 5 3 -8 6 -5 6 6 1 12 6 16 16
12 8 -3 15 0 15 6 0 7 7 3 16 -8 8 -10 13 -13 9 -6 -4 7 3 16 17 21 26 10 41
5 32 -11 -4 -7 -2 -8 5 -4 6 4 9 12 6 17 -4 5 -2 9 4 9 5 0 18 3 28 7 16 6 17
5 3 -13 -14 -18 -14 -18 5 -4 11 8 23 20 27 25 4 6 8 6 8 2 0 -4 9 -3 20 3 15
8 20 8 20 -2 0 -9 3 -9 8 -2 8 13 54 26 47 13 -3 -5 8 -1 25 9 27 15 32 15 40
2 5 -8 10 -10 10 -4 0 17 36 24 51 10 9 -8 10 -8 4 3 -6 11 -4 13 8 8 10 -3
17 -2 17 4 0 6 6 9 13 6 6 -2 11 -13 9 -23 -2 -15 -1 -16 7 -4 5 8 7 18 5 22
-3 4 -3 8 0 8 2 0 12 3 20 6 12 5 15 2 10 -10 -3 -9 -1 -16 6 -16 6 0 9 4 5 9
-11 19 17 23 31 5 11 -15 13 -16 8 -3 -7 23 13 34 33 17 12 -9 15 -9 9 0 -4 7
-2 12 6 12 8 0 20 -6 27 -12 10 -11 12 -10 9 2 -2 10 5 15 22 16 14 0 30 3 36
6 16 10 49 2 46 -12 -1 -6 2 -9 8 -5 6 3 8 10 5 15 -7 12 62 18 81 7 12 -7 15
-6 10 2 -12 19 32 13 44 -6 11 -17 11 -17 6 1 -5 15 -2 18 19 14 13 -3 26 -1
27 3 2 5 16 2 32 -6 25 -14 27 -13 16 0 -10 13 -9 15 9 15 11 0 21 -6 21 -12
0 -9 3 -9 9 1 11 17 84 25 74 7 -3 -6 3 -2 15 8 21 18 28 13 23 -17 -1 -5 3
-6 9 -2 6 3 8 10 5 15 -3 4 2 10 10 14 8 3 15 1 15 -4 0 -6 5 -10 11 -10 5 0
7 5 4 10 -4 6 9 11 32 12 21 1 52 3 68 5 17 2 47 5 68 6 20 1 37 5 37 8 0 4
10 7 23 7 12 1 51 3 86 5 67 5 123 -9 99 -25 -8 -5 -1 -6 16 -2 19 5 27 3 22
-4 -4 -6 2 -8 14 -5 12 3 20 0 20 -6 0 -7 5 -9 10 -6 6 3 10 2 10 -4 0 -6 7
-7 17 -4 11 5 14 3 8 -6 -5 -10 -2 -11 14 -6 11 3 21 2 21 -3 0 -6 9 -8 20 -5
11 3 20 0 20 -6 0 -5 7 -8 16 -4 11 4 22 -1 30 -12 8 -11 14 -13 14 -6 0 7 8
10 18 8 9 -3 34 -8 55 -12 24 -4 35 -10 32 -18 -4 -7 1 -3 9 7 9 11 16 16 16
10 0 -5 31 -8 71 -7 53 2 69 0 64 -10 -4 -6 1 -3 9 7 14 18 21 15 17 -7 -1 -5
3 -6 9 -2 6 3 8 11 5 16 -9 14 21 11 34 -4 6 -8 17 -31 25 -53 53 -149 177
-343 300 -467 25 -26 46 -55 46 -65 8 -337 68 -576 186 -745 19 -26 34 -49 34
-52 0 -2 21 -27 48 -56 26 -28 46 -56 44 -61 -1 -5 1 -8 5 -5 11 6 73 -59 65
-69 -4 -4 -2 -4 5 -1 6 4 20 -4 31 -18 11 -13 22 -21 26 -18 3 3 6 -1 6 -10 0
-10 6 -16 13 -15 6 2 11 -3 9 -10 -1 -8 2 -11 7 -8 15 10 24 -13 28 -73 11
-175 50 -307 123 -420 22 -34 40 -66 40 -71 0 -6 4 -10 9 -10 19 0 19 -31 1
-106 -23 -92 -21 -208 5 -267 10 -24 13 -43 7 -50 -35 -45 -51 -170 -33 -250
7 -30 5 -51 -11 -95 -13 -36 -20 -77 -19 -112 4 -102 4 -125 -2 -145 -46 -166
-28 -332 45 -415 15 -18 28 -37 28 -42 0 -5 4 -7 9 -3 5 3 13 0 16 -5 4 -6 18
-15 32 -21 14 -5 21 -14 17 -21 -4 -6 -3 -8 4 -4 6 3 14 2 17 -4 5 -8 11 -7
21 1 9 8 14 8 14 1 0 -11 74 -8 114 4 14 5 16 3 11 -7 -4 -8 2 -3 15 9 18 19
24 21 31 10 7 -10 9 -9 9 5 0 10 5 15 10 12 6 -3 10 -1 10 6 0 8 4 8 15 -1 13
-11 14 -10 9 4 -6 16 10 23 19 9 2 -5 2 -3 1 4 -3 12 78 88 94 88 4 0 29 16
56 35 26 19 56 35 66 35 10 0 22 3 26 7 3 4 -3 6 -15 3 -11 -2 -21 0 -21 6 0
5 6 9 13 9 7 0 18 9 25 20 7 12 18 18 24 14 6 -4 8 -3 5 3 -9 14 47 125 58
115 4 -4 4 4 0 17 -5 15 -3 21 3 17 6 -4 8 2 5 14 -3 11 0 20 6 20 6 0 11 7
11 15 0 13 12 19 32 16 4 0 5 5 2 13 -3 8 0 17 7 22 8 5 10 3 4 -6 -5 -9 -4
-11 4 -6 6 4 8 12 5 18 -4 6 1 17 10 24 10 7 17 15 17 18 -3 21 0 26 11 20 8
-5 9 -2 5 10 -5 13 -3 17 6 13 8 -3 14 1 14 9 0 7 -5 11 -10 7 -12 -7 11 36
32 61 11 14 12 17 2 11 -11 -6 -13 -4 -7 11 4 10 9 24 10 29 3 17 69 105 78
105 5 0 7 4 4 9 -3 4 4 17 15 27 12 11 23 17 24 14 2 -3 7 -1 12 4 5 5 3 6 -4
2 -20 -11 -16 2 18 60 17 30 35 52 40 49 5 -4 6 2 2 11 -4 11 -3 15 5 10 6 -3
14 -1 18 5 4 8 3 9 -4 5 -16 -9 -15 7 0 22 7 7 9 12 5 12 -4 0 0 14 8 30 9 17
19 28 24 26 4 -3 8 1 8 9 0 8 -5 11 -10 8 -6 -3 -7 -2 -4 4 12 19 30 68 29 76
-1 4 2 7 7 7 5 0 8 8 6 18 -1 9 3 32 11 49 7 18 10 33 7 33 -3 0 1 8 8 17 12
15 12 16 -1 8 -13 -8 -13 -7 -1 8 7 9 10 17 6 17 -4 0 -2 6 4 14 8 10 9 16 1
21 -6 3 -7 12 -3 18 4 7 6 23 4 36 -1 13 1 21 6 18 6 -4 10 0 10 8 0 8 -4 12
-9 9 -11 -7 -10 3 2 27 6 11 7 19 1 19 -5 0 -6 14 -1 35 4 19 4 35 0 35 -9 0
-6 33 5 50 3 6 0 10 -7 10 -10 0 -10 2 1 9 11 7 11 9 0 13 -12 4 -11 8 1 23 9
11 10 16 3 11 -9 -5 -13 0 -13 16 0 13 6 30 13 37 10 10 9 11 -4 6 -12 -5 -15
1 -14 30 1 20 -2 38 -7 41 -4 3 -6 10 -2 15 3 5 10 6 16 3 7 -4 8 -2 4 5 -4 6
-12 9 -17 6 -5 -4 -9 3 -9 15 0 14 4 19 12 14 8 -5 9 -2 5 9 -4 10 -1 17 5 17
6 0 9 2 6 6 -3 3 8 33 24 67 17 34 31 69 33 77 2 9 10 33 19 54 9 21 16 47 16
57 0 11 5 19 10 19 6 0 9 3 9 8 -4 22 2 63 9 59 4 -3 7 9 7 26 1 56 10 92 25
105 13 11 13 12 0 10 -21 -4 -14 43 8 59 9 7 23 17 30 23 6 6 12 8 12 5 0 -3
9 3 21 14 12 11 28 17 36 14 8 -3 13 0 11 8 -2 7 5 15 16 17 11 2 16 0 12 -6
-3 -6 -2 -13 3 -16 4 -3 8 4 7 17 -1 14 5 22 16 22 9 0 20 4 25 9 4 5 3 6 -4
2 -7 -4 -13 -5 -13 -2 0 5 143 85 150 84 3 -1 24 10 46 25 32 20 44 23 54 14
9 -8 11 -8 7 -1 -4 7 0 17 8 24 14 12 19 7 16 -13 -1 -5 3 -6 8 -2 6 3 7 13 4
22 -5 12 -3 14 6 8 8 -4 16 -2 21 4 4 7 13 13 21 14 8 2 20 6 27 10 9 6 12 -6
13 -50 4 -151 -5 -310 -22 -396 -5 -29 -12 -65 -15 -82 -35 -202 -162 -416
-385 -650 -117 -123 -138 -149 -144 -177 -11 -47 15 -98 49 -98 9 0 16 -4 16
-9 0 -5 12 -8 26 -5 18 3 23 1 18 -7 -5 -8 -3 -9 7 -4 7 5 31 10 54 11 22 1
49 4 60 7 11 2 26 -1 34 -7 12 -9 13 -8 6 3 -6 11 -1 13 23 9 17 -2 29 -2 27
2 -2 3 29 14 69 23 40 10 87 24 105 33 17 8 35 13 41 9 5 -3 10 -2 10 3 0 5
11 14 25 20 21 10 23 9 19 -6 -2 -9 1 -7 7 5 15 28 45 39 65 22 10 -9 18 -9
25 -2 8 8 7 11 -2 10 -8 -1 -16 2 -18 8 -5 12 90 65 103 58 5 -4 6 -2 3 4 -5
8 43 53 57 53 3 0 22 16 43 35 21 19 43 35 50 35 6 0 15 5 19 12 5 7 3 8 -6 3
-9 -5 -11 -4 -6 3 4 7 14 12 22 12 8 0 12 5 9 10 -3 6 0 10 8 10 8 0 18 7 21
16 3 8 11 12 17 8 7 -4 9 -3 6 3 -7 11 58 84 67 75 3 -3 6 2 6 11 0 20 64 89
74 80 4 -4 4 0 0 10 -4 12 -1 17 11 17 9 0 13 5 10 10 -9 14 14 42 28 33 6 -3
7 -1 3 6 -4 6 2 23 13 37 12 15 21 33 21 41 0 7 7 16 15 19 8 4 15 12 15 20 0
8 5 14 10 14 6 0 10 3 9 8 -2 15 14 52 22 52 5 0 8 5 7 12 -2 7 2 12 9 13 6 0
15 4 19 8 11 11 14 38 3 31 -5 -3 -7 -9 -4 -14 3 -5 1 -11 -5 -15 -16 -10 -12
22 5 39 8 8 15 22 15 30 0 9 9 25 20 36 11 11 15 20 9 20 -5 0 -7 5 -4 10 4 6
11 8 16 5 5 -3 6 1 3 10 -4 9 2 25 12 37 11 12 13 18 6 14 -6 -4 -12 -2 -12 4
0 6 7 13 15 16 8 4 13 10 10 14 -7 11 15 71 25 65 4 -2 5 7 2 20 -4 23 5 31
31 26 5 -1 6 3 2 9 -3 6 -11 8 -16 5 -12 -8 -12 -8 10 52 10 29 16 55 12 59
-3 4 0 3 8 -1 11 -6 13 -4 8 8 -3 10 -2 17 4 17 6 0 7 5 4 10 -4 6 -2 16 3 23
6 7 10 14 10 17 -3 19 15 80 22 75 4 -3 6 5 2 17 -3 13 -1 19 5 15 6 -4 8 4 5
20 -3 17 -1 24 6 19 6 -4 8 2 5 14 -3 11 -1 20 4 20 5 0 9 8 10 18 1 9 4 26 6
37 3 11 6 26 6 33 1 7 5 11 10 8 5 -4 7 2 5 11 -6 23 20 99 32 94 5 -1 8 -7 7
-12 -2 -4 4 -6 13 -2 13 5 13 7 2 14 -7 5 -8 9 -3 10 6 0 22 3 38 5 17 3 27 0
27 -8 0 -6 7 -3 15 8 13 16 16 17 25 4 6 -10 10 -11 10 -2 0 6 9 12 21 12 13
0 18 -4 13 -12 -4 -7 -3 -8 5 -4 6 4 9 12 6 17 -4 5 2 9 12 10 10 1 38 2 63 4
26 1 48 -2 52 -9 5 -7 8 -5 8 7 0 20 36 24 43 5 3 -8 6 -6 6 5 1 14 8 17 36
14 21 -3 35 0 35 7 0 6 5 4 10 -4 9 -13 10 -13 10 0 0 12 2 13 9 1 5 -8 10 -9
12 -3 2 6 30 13 62 15 32 3 61 7 64 11 3 3 13 0 21 -7 13 -9 14 -9 8 0 -11 19
5 15 20 -4 13 -17 14 -17 8 0 -7 18 0 19 128 21 31 1 54 4 51 8 -2 5 6 7 19 7
13 -1 33 1 45 4 17 4 21 2 17 -11 -5 -14 -3 -13 6 1 8 13 19 17 35 13 13 -3
26 -2 29 2 6 11 36 9 55 -3 10 -5 12 -4 7 3 -4 7 -1 12 9 12 10 0 14 -5 10
-12 -4 -7 -1 -6 7 2 7 8 22 16 33 17 23 2 56 8 105 18 52 10 52 10 90 27 24
10 39 12 48 5 9 -7 11 -6 7 4 -3 8 17 32 49 59 38 33 56 57 65 88 7 23 16 42
20 42 8 0 6 188 -2 197 -11 10 -8 45 2 38 5 -3 3 8 -6 25 -8 17 -13 40 -10 51
3 10 1 19 -4 19 -6 0 -5 9 2 21 8 15 8 19 0 15 -7 -5 -11 2 -12 16 -3 109
-107 255 -221 312 -26 13 -44 27 -40 32 4 5 0 3 -9 -4 -9 -6 -19 -9 -22 -5
-10 9 -9 35 1 29 4 -3 8 5 9 17 1 46 3 58 11 53 4 -2 8 12 8 32 3 73 9 112 19
109 5 -2 16 2 23 10 16 15 36 7 26 -10 -4 -7 -3 -8 2 -4 5 5 9 12 9 15 0 15
17 32 31 32 8 0 37 11 64 24 28 14 64 27 80 31 26 6 28 10 25 43 -2 20 -5 44
-8 52 -3 8 -8 27 -11 42 -3 14 -9 34 -13 44 -5 13 -3 15 8 9 10 -6 9 -3 -2 11
-9 10 -20 33 -24 49 -5 17 -9 32 -10 35 -30 82 -100 220 -144 284 -17 25 -31
49 -31 54 0 6 -6 13 -12 16 -9 3 -5 12 12 27 15 14 19 20 8 16 -13 -4 -16 -2
-11 11 3 9 10 22 14 28 5 6 6 13 3 17 -11 10 7 48 19 41 8 -5 8 -2 0 7 -7 7
-13 27 -13 44 -1 60 -65 149 -152 211 -66 47 -72 55 -71 112 0 12 -4 22 -10
22 -5 0 -5 6 2 13 6 8 8 16 5 19 -6 7 -13 57 -16 121 -1 26 -7 47 -13 47 -5 1
3 12 19 25 17 13 34 21 39 18 6 -3 7 -1 3 5 -7 12 33 44 46 36 4 -3 5 3 1 13
-6 16 -5 16 10 4 15 -12 17 -12 11 2 -8 21 3 37 21 31 8 -4 12 -11 8 -17 -4
-6 -1 -7 7 -2 10 6 10 11 -3 20 -21 15 -22 25 -2 25 9 0 12 6 8 17 -4 11 -3
14 5 9 7 -4 13 -2 13 3 2 14 6 29 9 36 1 3 3 8 5 13 1 4 5 15 8 25 17 43 20
53 23 65 1 8 11 23 21 35 10 11 12 17 5 13 -19 -11 -14 15 6 31 9 8 11 11 3 7
-11 -6 -13 -3 -7 12 5 10 9 30 9 44 1 14 9 31 17 38 8 8 10 11 3 7 -8 -4 -12
4 -10 25 1 16 6 30 10 30 5 0 5 5 2 10 -3 6 0 10 7 10 9 0 9 3 2 8 -6 4 -11
36 -11 72 -1 36 -2 65 -3 65 -1 0 -3 19 -5 43 -1 23 1 42 6 42 5 0 9 5 9 11 0
5 -5 7 -10 4 -5 -3 -11 1 -11 9 -1 9 -3 21 -4 26 -1 6 -3 12 -4 15 0 3 -39
-23 -85 -59 -46 -36 -117 -81 -157 -102 -72 -36 -179 -77 -185 -71 -2 2 -4 17
-6 35 -1 18 -6 32 -11 32 -5 0 -6 9 -2 19 3 11 1 22 -5 26 -6 3 -8 11 -4 16 3
5 1 15 -4 22 -6 7 -12 26 -14 42 -2 17 -6 32 -9 35 -4 3 -9 16 -10 30 -2 14
-7 27 -11 30 -4 3 -9 15 -11 25 -1 11 -5 25 -8 30 -4 6 -10 24 -14 40 -5 17
-9 32 -10 35 -1 3 -8 19 -14 37 -7 18 -12 35 -11 39 1 4 -2 10 -7 13 -13 8
-45 91 -35 91 4 0 2 4 -4 8 -18 12 -85 162 -78 174 4 6 3 8 -3 5 -6 -4 -30 32
-56 81 -246 471 -686 989 -1109 1303 -331 246 -820 479 -1318 629 -212 64
-597 157 -720 174 -14 2 -69 11 -124 20 -120 20 -142 23 -323 42 l-63 6 -1
-29 c-1 -15 -2 -57 -4 -93 -2 -62 -11 -152 -20 -195 -2 -11 -4 -28 -4 -37 -1
-26 -13 -23 -77 18 -49 32 -181 136 -194 155 -3 4 -23 28 -45 53 -22 26 -54
73 -72 105 -34 63 -92 203 -90 221 0 3 -5 16 -12 28 -11 21 -19 49 -26 92 -1
8 -5 22 -9 30 -3 8 -8 29 -10 45 -2 17 -6 37 -9 45 -13 36 -28 150 -21 161 4
8 3 10 -4 5 -7 -4 -12 -5 -12 -2 0 5 -29 143 -34 161 -2 6 -10 27 -20 47 -9
21 -16 41 -16 46 0 4 -9 25 -20 46 -10 22 -17 44 -13 50 3 6 3 8 -2 4 -9 -8
-35 35 -35 57 0 7 -4 15 -9 17 -5 2 -11 10 -13 18 -2 8 -6 17 -9 20 -3 3 -29
44 -58 92 -82 138 -166 243 -301 378 -141 142 -195 175 -267 167 -84 -9 -153
-84 -153 -164 0 -28 18 -78 61 -167 73 -154 138 -348 172 -516 38 -187 42
-233 52 -525 7 -233 16 -453 20 -510 6 -63 16 -165 20 -185 1 -8 6 -40 11 -70
4 -30 8 -57 9 -60 1 -3 5 -23 9 -45 15 -75 57 -205 96 -291 33 -73 110 -208
122 -212 4 -2 8 -8 8 -14 0 -6 14 -28 31 -49 17 -21 29 -39 26 -39 -3 0 11
-16 30 -35 20 -20 32 -39 27 -46 -4 -7 -3 -9 3 -6 6 4 23 -8 38 -25 l27 -31
-58 8 c-126 15 -272 70 -434 163 -75 43 -170 120 -255 206 -87 89 -93 96 -145
171 -19 28 -37 52 -40 55 -18 18 -91 154 -93 172 0 9 -4 15 -7 13 -6 -4 -66
134 -72 165 -2 8 -6 18 -11 21 -4 3 -9 20 -10 37 -1 18 -6 32 -11 32 -4 0 -6
9 -3 20 3 13 1 18 -6 13 -6 -4 -8 2 -5 15 4 12 2 22 -2 22 -5 0 -9 8 -9 18 -2
29 -8 66 -15 83 -4 8 -8 37 -9 62 -1 26 -6 47 -11 47 -5 0 -2 8 5 17 8 10 9
14 2 10 -8 -5 -11 5 -10 38 1 25 -1 45 -6 45 -10 0 -4 23 8 32 7 5 6 8 -1 8
-5 0 -11 21 -13 47 -1 25 -2 49 -3 52 -2 21 4 31 15 26 6 -4 5 -1 -3 7 -15 13
-21 100 -8 114 4 4 3 16 -3 27 -8 14 -8 18 0 13 6 -4 11 -2 11 3 0 6 -4 11 -8
11 -4 0 -8 19 -9 43 -3 108 -12 227 -18 236 -3 6 0 11 7 11 9 0 9 3 -2 10 -8
5 -11 10 -7 10 4 0 3 9 -3 20 -9 16 -8 20 7 21 15 0 15 2 3 7 -9 4 -15 20 -15
42 0 19 -3 40 -7 45 -4 6 -9 26 -11 45 -2 19 -7 42 -10 50 -8 21 -19 80 -21
113 0 15 -5 27 -9 27 -4 0 -7 6 -6 13 1 6 -1 19 -4 27 -3 8 -16 49 -27 90 -55
191 -207 412 -346 504 -58 38 -135 45 -190 16z"/>
<path d="M10595 4820 c-3 -5 -1 -10 4 -10 6 0 11 5 11 10 0 6 -2 10 -4 10 -3
0 -8 -4 -11 -10z"/>
<path d="M10453 4755 c0 -8 4 -12 9 -9 4 3 8 9 8 15 0 5 -4 9 -8 9 -5 0 -9 -7
-9 -15z"/>
<path d="M4315 4120 c-3 -6 1 -7 9 -4 18 7 21 14 7 14 -6 0 -13 -4 -16 -10z"/>
<path d="M4135 4100 c-3 -6 1 -7 9 -4 18 7 21 14 7 14 -6 0 -13 -4 -16 -10z"/>
<path d="M4680 4040 c-9 -6 -10 -10 -3 -10 6 0 15 5 18 10 8 12 4 12 -15 0z"/>
<path d="M3190 3990 c-9 -6 -10 -10 -3 -10 6 0 15 5 18 10 8 12 4 12 -15 0z"/>
<path d="M2785 3900 c-3 -6 1 -7 9 -4 18 7 21 14 7 14 -6 0 -13 -4 -16 -10z"/>
<path d="M2585 3840 c3 -5 8 -10 11 -10 2 0 4 5 4 10 0 6 -5 10 -11 10 -5 0
-7 -4 -4 -10z"/>
<path d="M2335 3769 c-4 -6 -5 -12 -2 -15 2 -3 7 2 10 11 7 17 1 20 -8 4z"/>
<path d="M10565 3650 c-3 -6 1 -7 9 -4 18 7 21 14 7 14 -6 0 -13 -4 -16 -10z"/>
<path d="M1973 3625 c0 -8 4 -12 9 -9 5 3 6 10 3 15 -9 13 -12 11 -12 -6z"/>
<path d="M10540 3626 c0 -2 7 -7 16 -10 8 -3 12 -2 9 4 -6 10 -25 14 -25 6z"/>
<path d="M10390 3539 c0 -5 5 -7 10 -4 6 3 10 8 10 11 0 2 -4 4 -10 4 -5 0
-10 -5 -10 -11z"/>
<path d="M1596 3418 c3 -5 10 -6 15 -3 13 9 11 12 -6 12 -8 0 -12 -4 -9 -9z"/>
<path d="M1566 3398 c3 -5 10 -6 15 -3 13 9 11 12 -6 12 -8 0 -12 -4 -9 -9z"/>
<path d="M9195 3380 c3 -5 8 -10 11 -10 2 0 4 5 4 10 0 6 -5 10 -11 10 -5 0
-7 -4 -4 -10z"/>
<path d="M7895 2980 c-3 -5 -1 -10 4 -10 6 0 11 5 11 10 0 6 -2 10 -4 10 -3 0
-8 -4 -11 -10z"/>
<path d="M7853 2955 c0 -8 4 -12 9 -9 5 3 6 10 3 15 -9 13 -12 11 -12 -6z"/>
<path d="M7771 2914 c0 -11 3 -14 6 -6 3 7 2 16 -1 19 -3 4 -6 -2 -5 -13z"/>
<path d="M7575 2800 c-3 -6 1 -7 9 -4 18 7 21 14 7 14 -6 0 -13 -4 -16 -10z"/>
<path d="M7516 2758 c3 -5 10 -6 15 -3 13 9 11 12 -6 12 -8 0 -12 -4 -9 -9z"/>
<path d="M7470 2599 c0 -5 5 -7 10 -4 6 3 10 8 10 11 0 2 -4 4 -10 4 -5 0 -10
-5 -10 -11z"/>
<path d="M7433 2425 c0 -8 4 -12 9 -9 5 3 6 10 3 15 -9 13 -12 11 -12 -6z"/>
<path d="M8796 2393 c-6 -14 -5 -15 5 -6 7 7 10 15 7 18 -3 3 -9 -2 -12 -12z"/>
<path d="M7406 2382 c-3 -5 1 -9 9 -9 8 0 12 4 9 9 -3 4 -7 8 -9 8 -2 0 -6 -4
-9 -8z"/>
<path d="M8551 2047 c-8 -10 -7 -14 2 -14 8 0 14 6 14 14 0 7 -1 13 -2 13 -2
0 -8 -6 -14 -13z"/>
<path d="M8390 1906 c0 -2 7 -7 16 -10 8 -3 12 -2 9 4 -6 10 -25 14 -25 6z"/>
<path d="M8195 1759 c-4 -6 -5 -12 -2 -15 2 -3 7 2 10 11 7 17 1 20 -8 4z"/>
<path d="M7995 1660 c-3 -5 -1 -10 4 -10 6 0 11 5 11 10 0 6 -2 10 -4 10 -3 0
-8 -4 -11 -10z"/>
<path d="M7918 1623 c7 -3 16 -2 19 1 4 3 -2 6 -13 5 -11 0 -14 -3 -6 -6z"/>
<path d="M7700 1585 c0 -7 30 -13 34 -7 3 4 -4 9 -15 9 -10 1 -19 0 -19 -2z"/>
<path d="M7240 1359 c0 -5 5 -7 10 -4 6 3 10 8 10 11 0 2 -4 4 -10 4 -5 0 -10
-5 -10 -11z"/>
<path d="M7186 1238 c3 -5 10 -6 15 -3 13 9 11 12 -6 12 -8 0 -12 -4 -9 -9z"/>
<path d="M7068 1063 c7 -3 16 -2 19 1 4 3 -2 6 -13 5 -11 0 -14 -3 -6 -6z"/>
<path d="M6830 619 c0 -5 5 -7 10 -4 6 3 10 8 10 11 0 2 -4 4 -10 4 -5 0 -10
-5 -10 -11z"/>
<path d="M6586 382 c-3 -5 1 -9 9 -9 8 0 15 4 15 9 0 4 -4 8 -9 8 -6 0 -12 -4
-15 -8z"/>
<path d="M6550 350 c-9 -6 -10 -10 -3 -10 6 0 15 5 18 10 8 12 4 12 -15 0z"/>
<path d="M6530 326 c0 -2 7 -7 16 -10 8 -3 12 -2 9 4 -6 10 -25 14 -25 6z"/>
</g>
</svg>
